{
  "asset": {
    "version": "2.0",
    "generator": "THREE.GLTFExporter"
  },
  "scenes": [
    {
      "name": "Scene",
      "nodes": [
        5,
        6
      ]
    }
  ],
  "scene": 0,
  "nodes": [
    {
      "matrix": [
        0,
        0,
        -1,
        0,
        1,
        0,
        0,
        0,
        0,
        -1,
        0,
        0,
        0,
        0,
        -2.381382942199707,
        1
      ],
      "name": "Empty",
      "extras": {
        "name": "Empty"
      }
    },
    {
      "matrix": [
        -1.0098326327311172e-7,
        -0.7515937503706229,
        0,
        0,
        0.7515937503706229,
        -1.0098326327311172e-7,
        0,
        0,
        0,
        0,
        0.7515936493873596,
        0,
        0,
        1.4847303628921509,
        1.257590056684966,
        1
      ],
      "name": "Plane",
      "extras": {
        "name": "Plane"
      },
      "mesh": 0
    },
    {
      "name": "Plane001_1",
      "mesh": 1
    },
    {
      "name": "Plane001_2",
      "mesh": 2
    },
    {
      "matrix": [
        -1.497771956723902e-7,
        -1.1147550650146225,
        1.8161667647763017e-7,
        0,
        -1.1147550650146225,
        -1.497771956723902e-7,
        1.8161667647763017e-7,
        0,
        -1.8161667647763017e-7,
        -1.8161667647763017e-7,
        -1.114755214791818,
        0,
        0.005085780285298824,
        -0.0139735983684659,
        1.8908274173736572,
        1
      ],
      "name": "Plane001",
      "extras": {
        "name": "Plane.001"
      },
      "children": [
        2,
        3
      ]
    },
    {
      "name": "innerve.glb",
      "children": [
        0,
        1,
        4
      ]
    },
    {
      "name": "AmbientLight"
    }
  ],
  "bufferViews": [
    {
      "buffer": 0,
      "byteOffset": 0,
      "byteLength": 8448,
      "target": 34962,
      "byteStride": 12
    },
    {
      "buffer": 0,
      "byteOffset": 8448,
      "byteLength": 5632,
      "target": 34962,
      "byteStride": 8
    },
    {
      "buffer": 0,
      "byteOffset": 14080,
      "byteLength": 8448,
      "target": 34962,
      "byteStride": 12
    },
    {
      "buffer": 0,
      "byteOffset": 22528,
      "byteLength": 5376,
      "target": 34963
    },
    {
      "buffer": 0,
      "byteOffset": 27904,
      "byteLength": 10680,
      "target": 34962,
      "byteStride": 12
    },
    {
      "buffer": 0,
      "byteOffset": 38584,
      "byteLength": 7120,
      "target": 34962,
      "byteStride": 8
    },
    {
      "buffer": 0,
      "byteOffset": 45704,
      "byteLength": 10680,
      "target": 34962,
      "byteStride": 12
    },
    {
      "buffer": 0,
      "byteOffset": 56384,
      "byteLength": 5804,
      "target": 34963
    },
    {
      "buffer": 0,
      "byteOffset": 62188,
      "byteLength": 4464,
      "target": 34962,
      "byteStride": 12
    },
    {
      "buffer": 0,
      "byteOffset": 66652,
      "byteLength": 2976,
      "target": 34962,
      "byteStride": 8
    },
    {
      "buffer": 0,
      "byteOffset": 69628,
      "byteLength": 4464,
      "target": 34962,
      "byteStride": 12
    },
    {
      "buffer": 0,
      "byteOffset": 74092,
      "byteLength": 1428,
      "target": 34963
    }
  ],
  "buffers": [
    {
      "byteLength": 75520,
      "uri": "data:application/octet-stream;base64,"
    }
  ],
  "accessors": [
    {
      "bufferView": 0,
      "componentType": 5126,
      "count": 704,
      "max": [
        0.9327094554901123,
        -7.372871063671127e-11,
        1.0106295347213745
      ],
      "min": [
        -0.9567695260047913,
        -0.2300000935792923,
        -0.6051339507102966
      ],
      "type": "VEC3"
    },
    {
      "bufferView": 1,
      "componentType": 5126,
      "count": 704,
      "max": [
        0,
        1
      ],
      "min": [
        0,
        1
      ],
      "type": "VEC2"
    },
    {
      "bufferView": 2,
      "componentType": 5126,
      "count": 704,
      "max": [
        0.9932000041007996,
        1,
        1
      ],
      "min": [
        -0.9958000183105469,
        -1,
        -0.9898999929428101
      ],
      "type": "VEC3"
    },
    {
      "bufferView": 3,
      "componentType": 5123,
      "count": 2688,
      "max": [
        703
      ],
      "min": [
        0
      ],
      "type": "SCALAR"
    },
    {
      "bufferView": 4,
      "componentType": 5126,
      "count": 890,
      "max": [
        0.9693950414657593,
        0.1899999976158142,
        1.010629415512085
      ],
      "min": [
        -0.9567691087722778,
        -0.0016744062304496765,
        -0.605133593082428
      ],
      "type": "VEC3"
    },
    {
      "bufferView": 5,
      "componentType": 5126,
      "count": 890,
      "max": [
        0,
        1
      ],
      "min": [
        0,
        1
      ],
      "type": "VEC2"
    },
    {
      "bufferView": 6,
      "componentType": 5126,
      "count": 890,
      "max": [
        0.8658999800682068,
        1,
        1
      ],
      "min": [
        -0.9993000030517578,
        -1,
        -0.9898999929428101
      ],
      "type": "VEC3"
    },
    {
      "bufferView": 7,
      "componentType": 5123,
      "count": 2901,
      "max": [
        889
      ],
      "min": [
        0
      ],
      "type": "SCALAR"
    },
    {
      "bufferView": 8,
      "componentType": 5126,
      "count": 372,
      "max": [
        1.5692541599273682,
        0.19096891582012177,
        0.9555239081382751
      ],
      "min": [
        0.3503574728965759,
        -0.0016744062304496765,
        -0.09198685735464096
      ],
      "type": "VEC3"
    },
    {
      "bufferView": 9,
      "componentType": 5126,
      "count": 372,
      "max": [
        0,
        1
      ],
      "min": [
        0,
        1
      ],
      "type": "VEC2"
    },
    {
      "bufferView": 10,
      "componentType": 5126,
      "count": 372,
      "max": [
        0.9987000226974487,
        1,
        0.9997000098228455
      ],
      "min": [
        -0.02630000002682209,
        -1,
        -0.9995999932289124
      ],
      "type": "VEC3"
    },
    {
      "bufferView": 11,
      "componentType": 5123,
      "count": 714,
      "max": [
        371
      ],
      "min": [
        0
      ],
      "type": "SCALAR"
    }
  ],
  "materials": [
    {
      "pbrMetallicRoughness": {
        "baseColorFactor": [
          0.4558974802494049,
          0.30505090951919556,
          0.8000000715255737,
          1
        ],
        "metallicFactor": 0,
        "roughnessFactor": 0.5
      },
      "doubleSided": true,
      "name": "Material.001"
    },
    {
      "pbrMetallicRoughness": {
        "baseColorFactor": [
          0,
          0.49127140641212463,
          1,
          1
        ],
        "metallicFactor": 0,
        "roughnessFactor": 0.5
      },
      "doubleSided": true,
      "name": "Material.002"
    },
    {
      "pbrMetallicRoughness": {
        "baseColorFactor": [
          0.8000000715255737,
          0.02070367895066738,
          0.1435665637254715,
          1
        ],
        "metallicFactor": 0,
        "roughnessFactor": 0.5
      },
      "doubleSided": true,
      "name": "Material.003"
    }
  ],
  "meshes": [
    {
      "primitives": [
        {
          "mode": 4,
          "attributes": {
            "POSITION": 0,
            "TEXCOORD_0": 1,
            "NORMAL": 2
          },
          "indices": 3,
          "material": 0
        }
      ]
    },
    {
      "primitives": [
        {
          "mode": 4,
          "attributes": {
            "POSITION": 4,
            "TEXCOORD_0": 5,
            "NORMAL": 6
          },
          "indices": 7,
          "material": 1
        }
      ]
    },
    {
      "primitives": [
        {
          "mode": 4,
          "attributes": {
            "POSITION": 8,
            "TEXCOORD_0": 9,
            "NORMAL": 10
          },
          "indices": 11,
          "material": 2
        }
      ]
    }
  ]
}